<svg width="286" height="160" viewBox="0 0 286 160" fill="none" xmlns="http://www.w3.org/2000/svg">
<g clip-path="url(#clip0_1_426)">
<mask id="mask0_1_426" style="mask-type:alpha" maskUnits="userSpaceOnUse" x="-2" y="10" width="285" height="125">
<rect x="-2" y="10" width="284.938" height="124.058" fill="url(#paint0_linear_1_426)"/>
</mask>
<g mask="url(#mask0_1_426)">
<path d="M259 31.5L247.095 22.7782H152.369L98.5 15.745L84.6362 8H60.7193L49.5 17.9765L34.5 26.5L4.5 82.5L40.6081 127.147H238.423L273.5 77L266 54L263.5 47L259 31.5ZM237.418 124.916H41.6139L8.5 82.5L36.1746 29L54 22.7782L65 13.5L84.6362 11.6204L98.5 20.9149L120 22.7782L142.597 24L152.369 26.5L199.5 28L248.2 33.5L247.095 22.7782L251.5 65.5L266 82L237.418 124.911V124.916Z" fill="url(#paint1_linear_1_426)"/>
</g>
<path d="M269 79L236 127L44 129L9.5 81.5L37.3073 32.6254L56.6983 25.1404L63.6592 17H87.0279L102.585 27.8961L144.207 28.092L154.151 27.8961L164.939 28.092H244.642L257.073 36.6326L263.039 59.6195L269 79Z" fill="url(#paint2_linear_1_426)"/>
<path d="M268 77L263 57.6725L257 34.4999L252.891 30.086L248.504 27.3274H228.25H215.678H213.163H185.002H153.5L145.274 24.5687L123.651 22.9136L95.9923 20.3199L86.0843 12H63.9236L58.2764 20.3199L37.1555 30.086L10 79.7586L30.618 89.6727L45.6204 102L76.38 97.9487L81.1407 86.4428H101.181L105.044 74.2243L145.274 86.4428L268 79.7586V77Z" fill="#4A357D"/>
<path d="M64.0556 19.4362L53.1724 47.8429L70.5344 55.7766L77.2996 58.4048L68.0569 64.5516L62.9017 82.7996L51.8551 83.8857L61.038 55.9734L51.7049 51.6717L38.2992 86.6551L48.901 92.8672L73.8692 90.4123L82.5853 52.0352L64.7846 44.5836L71.858 23.0851L79.9916 22.2854L85.751 24.0202L78.2734 28.3707L74.2712 42.5469L83.8526 46.4465L89.7201 20.6106L81.2749 17.7432L64.0556 19.4362Z" fill="white"/>
<path d="M119.376 27.9452L111.831 72.6243L123.005 75.6741L125.539 53.8043L134.102 56.1416L132.51 78.2684L143.686 81.3189L144.15 59.8819L138.402 55.0484L144.288 53.491L144.784 30.5088L128.747 26.1316L119.376 27.9452ZM134.564 49.7553L126.273 47.4922L127.518 36.7527L121.85 32.0473L128.171 31.1033L135.757 33.1738L134.564 49.7579L134.564 49.7553Z" fill="white"/>
<path d="M113.754 32.216L107.869 32.0261L95.8058 80.0778L86.9999 79.7936L99.1698 37.5962L105.527 31.8858L95.0684 31.5483L96.7545 26.2642L114.934 26.8508L113.754 32.216Z" fill="white"/>
<path d="M218.353 33.9187L225.347 32.0644L234.58 56.2682L237.06 56.5321L246.701 31.6255L253.927 35.1055L258 80.1216L246.701 80.1216L248.691 46.2982L247.549 43.0664L238.854 72.8061L237.06 72.8061L223.5 42L221.865 43.4437L230.5 80.1216L217.907 80.641L218.353 33.9187Z" fill="white"/>
<path d="M203.044 83.0714L213.078 82.6541L213.888 61.6441L213.594 42.1376L203.218 28.3321L188.504 31L181 83.9884L194.202 83.4393L192.353 42.9458L201.1 40.4892L207.54 49.2051L205.027 64.9168L203.044 83.0714ZM209.418 64.7497L183.729 58.2629L188.504 65.5454L196.468 70.7579L208.753 73.743L209.418 64.7497Z" fill="white"/>
<path d="M155.74 83.361L175.317 84.047L175.233 71.5691L165.701 76.625L166.218 61.3074L177.286 59.6785L176.606 51.0543L161.645 54.5452L160.306 40.4638L161.033 36.2566L179.079 36.7374L177.392 33.7444L177.766 31.5749L151.537 30.6558L155.74 83.361Z" fill="white"/>
<path d="M50.4512 28.5593L28.2012 82.518L18.797 77.936L26.6566 60.039L30.4031 50.8192L38.4997 34.0072L50.4512 28.5593Z" fill="white"/>
<path d="M280.723 28.3081C277.443 20.7761 270.819 14.8404 261.042 10.6678C251.675 6.66898 239.805 4.44484 225.766 4.06025C196.985 3.27021 162.771 11.4833 128.471 24.9927C126.005 25.9634 123.032 25.748 120.615 26.7697L124.034 26.779C125.501 26.1743 126.98 25.5788 128.471 24.9927C198.745 -2.67937 266.474 -0.967247 279.448 28.8108C283.206 37.434 281.966 47.4774 276.6 58.0699C263.443 84.0599 225.458 113.347 175.531 133.007C170.701 134.909 165.866 136.679 161.038 138.317C131.749 148.261 102.82 153.3 78.2757 152.626C64.4169 152.246 52.727 150.061 43.5252 146.134C34.0773 142.103 27.695 136.401 24.5538 129.189C21.7196 122.681 21.7294 115.365 24.2126 107.613L23.1525 106.475C20.2428 115.02 20.2818 122.82 23.2768 129.692C26.5593 137.224 33.1805 143.16 42.9598 147.332C52.3274 151.331 64.1952 153.555 78.2343 153.94C79.7013 153.979 81.1829 154 82.6792 154C107.421 154 136.16 148.516 165.074 138.317C168.737 137.027 172.399 135.66 176.06 134.219C210.359 120.712 240.134 102.31 259.897 82.4011C267.668 74.5726 273.556 66.8483 277.458 59.3673C278.398 57.5671 279.222 55.7832 279.929 54.0154C283.737 44.491 284.006 35.8423 280.723 28.3081Z" fill="url(#paint3_linear_1_426)"/>
<path d="M280.723 28.3081C277.443 20.7761 270.819 14.8404 261.042 10.6678C251.675 6.66898 239.805 4.44484 225.766 4.06025C196.985 3.27021 162.771 11.4833 128.471 24.9927C126.005 25.9634 123.032 25.748 120.615 26.7697L124.034 26.779C125.501 26.1743 126.98 25.5788 128.471 24.9927C198.745 -2.67937 266.474 -0.967247 279.448 28.8108C283.206 37.434 281.966 47.4774 276.6 58.0699C263.443 84.0599 225.458 113.347 175.531 133.007C170.701 134.909 165.866 136.679 161.038 138.317C131.749 148.261 102.82 153.3 78.2757 152.626C64.4169 152.246 52.727 150.061 43.5252 146.134C34.0773 142.103 27.695 136.401 24.5538 129.189C21.7196 122.681 21.7294 115.365 24.2126 107.613L23.1525 106.475C20.2428 115.02 20.2818 122.82 23.2768 129.692C26.5593 137.224 33.1805 143.16 42.9598 147.332C52.3274 151.331 64.1952 153.555 78.2343 153.94C79.7013 153.979 81.1829 154 82.6792 154C107.421 154 136.16 148.516 165.074 138.317C168.737 137.027 172.399 135.66 176.06 134.219C210.359 120.712 240.134 102.31 259.897 82.4011C267.668 74.5726 273.556 66.8483 277.458 59.3673C278.398 57.5671 279.222 55.7832 279.929 54.0154C283.737 44.491 284.006 35.8423 280.723 28.3081Z" fill="url(#paint4_radial_1_426)"/>
<path d="M280.723 28.3081C277.443 20.7761 270.819 14.8404 261.042 10.6678C251.675 6.66898 239.805 4.44484 225.766 4.06025C196.985 3.27021 162.771 11.4833 128.471 24.9927C126.005 25.9634 123.032 25.748 120.615 26.7697L124.034 26.779C125.501 26.1743 126.98 25.5788 128.471 24.9927C198.745 -2.67937 266.474 -0.967247 279.448 28.8108C283.206 37.434 281.966 47.4774 276.6 58.0699C263.443 84.0599 225.458 113.347 175.531 133.007C170.701 134.909 165.866 136.679 161.038 138.317C131.749 148.261 102.82 153.3 78.2757 152.626C64.4169 152.246 52.727 150.061 43.5252 146.134C34.0773 142.103 27.695 136.401 24.5538 129.189C21.7196 122.681 21.7294 115.365 24.2126 107.613L23.1525 106.475C20.2428 115.02 20.2818 122.82 23.2768 129.692C26.5593 137.224 33.1805 143.16 42.9598 147.332C52.3274 151.331 64.1952 153.555 78.2343 153.94C79.7013 153.979 81.1829 154 82.6792 154C107.421 154 136.16 148.516 165.074 138.317C168.737 137.027 172.399 135.66 176.06 134.219C210.359 120.712 240.134 102.31 259.897 82.4011C267.668 74.5726 273.556 66.8483 277.458 59.3673C278.398 57.5671 279.222 55.7832 279.929 54.0154C283.737 44.491 284.006 35.8423 280.723 28.3081Z" fill="url(#paint5_radial_1_426)"/>
<path d="M10.1553 24.9563C13.2601 17.2234 19.5298 11.1295 28.7843 6.84562C37.6512 2.74016 48.8872 0.456703 62.1761 0.0618556C89.4183 -0.749246 122.305 6.43888 154.772 20.3085C157.106 21.3051 159.712 22.3374 162 23.3864H158.472C157.083 22.7656 155.683 22.1543 154.271 21.5525C87.7529 -6.85749 23.6426 -5.0997 11.3617 25.4724C7.80479 34.3256 8.97891 44.6368 14.0583 55.5117C26.5122 82.1949 62.4668 112.263 109.727 132.448C114.298 134.4 118.875 136.218 123.444 137.899C151.169 148.108 178.552 153.282 201.785 152.589C214.903 152.199 225.968 149.956 234.678 145.925C243.622 141.786 249.663 135.932 252.636 128.528C255.319 121.846 255.31 114.334 252.959 106.376L253.962 105.208C256.717 113.98 256.68 121.989 253.845 129.044C250.738 136.777 244.47 142.871 235.214 147.154C226.347 151.26 215.113 153.543 201.824 153.938C200.435 153.979 199.033 154 197.617 154C174.197 154 146.994 148.37 119.625 137.899C116.158 136.574 112.691 135.171 109.226 133.692C76.7591 119.824 48.5758 100.931 29.8684 80.4918C22.5123 72.4545 16.9393 64.5242 13.2463 56.8438C12.3559 54.9956 11.5763 53.1641 10.9073 51.3492C7.30193 41.5708 7.04819 32.6915 10.1553 24.9563Z" fill="url(#paint6_linear_1_426)"/>
<path d="M10.1553 24.9563C13.2601 17.2234 19.5298 11.1295 28.7843 6.84562C37.6512 2.74016 48.8872 0.456703 62.1761 0.0618556C89.4183 -0.749246 122.305 6.43888 154.772 20.3085C157.106 21.3051 159.712 22.3374 162 23.3864H158.472C157.083 22.7656 155.683 22.1543 154.271 21.5525C87.7529 -6.85749 23.6426 -5.0997 11.3617 25.4724C7.80479 34.3256 8.97891 44.6368 14.0583 55.5117C26.5122 82.1949 62.4668 112.263 109.727 132.448C114.298 134.4 118.875 136.218 123.444 137.899C151.169 148.108 178.552 153.282 201.785 152.589C214.903 152.199 225.968 149.956 234.678 145.925C243.622 141.786 249.663 135.932 252.636 128.528C255.319 121.846 255.31 114.334 252.959 106.376L253.962 105.208C256.717 113.98 256.68 121.989 253.845 129.044C250.738 136.777 244.47 142.871 235.214 147.154C226.347 151.26 215.113 153.543 201.824 153.938C200.435 153.979 199.033 154 197.617 154C174.197 154 146.994 148.37 119.625 137.899C116.158 136.574 112.691 135.171 109.226 133.692C76.7591 119.824 48.5758 100.931 29.8684 80.4918C22.5123 72.4545 16.9393 64.5242 13.2463 56.8438C12.3559 54.9956 11.5763 53.1641 10.9073 51.3492C7.30193 41.5708 7.04819 32.6915 10.1553 24.9563Z" fill="url(#paint7_radial_1_426)"/>
<path d="M10.1553 24.9563C13.2601 17.2234 19.5298 11.1295 28.7843 6.84562C37.6512 2.74016 48.8872 0.456703 62.1761 0.0618556C89.4183 -0.749246 122.305 6.43888 154.772 20.3085C157.106 21.3051 159.712 22.3374 162 23.3864H158.472C157.083 22.7656 155.683 22.1543 154.271 21.5525C87.7529 -6.85749 23.6426 -5.0997 11.3617 25.4724C7.80479 34.3256 8.97891 44.6368 14.0583 55.5117C26.5122 82.1949 62.4668 112.263 109.727 132.448C114.298 134.4 118.875 136.218 123.444 137.899C151.169 148.108 178.552 153.282 201.785 152.589C214.903 152.199 225.968 149.956 234.678 145.925C243.622 141.786 249.663 135.932 252.636 128.528C255.319 121.846 255.31 114.334 252.959 106.376L253.962 105.208C256.717 113.98 256.68 121.989 253.845 129.044C250.738 136.777 244.47 142.871 235.214 147.154C226.347 151.26 215.113 153.543 201.824 153.938C200.435 153.979 199.033 154 197.617 154C174.197 154 146.994 148.37 119.625 137.899C116.158 136.574 112.691 135.171 109.226 133.692C76.7591 119.824 48.5758 100.931 29.8684 80.4918C22.5123 72.4545 16.9393 64.5242 13.2463 56.8438C12.3559 54.9956 11.5763 53.1641 10.9073 51.3492C7.30193 41.5708 7.04819 32.6915 10.1553 24.9563Z" fill="url(#paint8_radial_1_426)"/>
<path d="M10.1553 24.9563C13.2601 17.2234 19.5298 11.1295 28.7843 6.84562C37.6512 2.74016 48.8872 0.456703 62.1761 0.0618556C89.4183 -0.749246 122.305 6.43888 154.772 20.3085C157.106 21.3051 159.712 22.3374 162 23.3864H158.472C157.083 22.7656 155.683 22.1543 154.271 21.5525C87.7529 -6.85749 23.6426 -5.0997 11.3617 25.4724C7.80479 34.3256 8.97891 44.6368 14.0583 55.5117C26.5122 82.1949 62.4668 112.263 109.727 132.448C114.298 134.4 118.875 136.218 123.444 137.899C151.169 148.108 178.552 153.282 201.785 152.589C214.903 152.199 225.968 149.956 234.678 145.925C243.622 141.786 249.663 135.932 252.636 128.528C255.319 121.846 255.31 114.334 252.959 106.376L253.962 105.208C256.717 113.98 256.68 121.989 253.845 129.044C250.738 136.777 244.47 142.871 235.214 147.154C226.347 151.26 215.113 153.543 201.824 153.938C200.435 153.979 199.033 154 197.617 154C174.197 154 146.994 148.37 119.625 137.899C116.158 136.574 112.691 135.171 109.226 133.692C76.7591 119.824 48.5758 100.931 29.8684 80.4918C22.5123 72.4545 16.9393 64.5242 13.2463 56.8438C12.3559 54.9956 11.5763 53.1641 10.9073 51.3492C7.30193 41.5708 7.04819 32.6915 10.1553 24.9563Z" fill="url(#paint9_radial_1_426)"/>
</g>
<defs>
<linearGradient id="paint0_linear_1_426" x1="140.469" y1="67.7042" x2="140.469" y2="128.497" gradientUnits="userSpaceOnUse">
<stop stop-color="#B1B1B1"/>
<stop offset="0.583333" stop-color="#D7D7D7" stop-opacity="0.0520833"/>
<stop offset="1" stop-color="#D9D9D9" stop-opacity="0"/>
</linearGradient>
<linearGradient id="paint1_linear_1_426" x1="-3" y1="67.5725" x2="282.034" y2="67.5725" gradientUnits="userSpaceOnUse">
<stop stop-color="#996DFF"/>
<stop offset="0.5" stop-color="#35E8B3"/>
<stop offset="1" stop-color="#E2D45C"/>
</linearGradient>
<linearGradient id="paint2_linear_1_426" x1="141.222" y1="86.1308" x2="141.222" y2="127.892" gradientUnits="userSpaceOnUse">
<stop stop-color="#28203E"/>
<stop offset="1" stop-color="#121214" stop-opacity="0"/>
</linearGradient>
<linearGradient id="paint3_linear_1_426" x1="159.231" y1="20.6193" x2="198.086" y2="124.233" gradientUnits="userSpaceOnUse">
<stop stop-color="#996DFF"/>
<stop offset="0.5" stop-color="#7A9AE2"/>
<stop offset="0.5001" stop-color="#35E8B3"/>
<stop offset="1" stop-color="#E2D45C"/>
</linearGradient>
<radialGradient id="paint4_radial_1_426" cx="0" cy="0" r="1" gradientUnits="userSpaceOnUse" gradientTransform="translate(117.994 29.7102) rotate(-18.4646) scale(64.5825 103.047)">
<stop stop-color="#171225"/>
<stop offset="1" stop-color="#171225" stop-opacity="0"/>
</radialGradient>
<radialGradient id="paint5_radial_1_426" cx="0" cy="0" r="1" gradientUnits="userSpaceOnUse" gradientTransform="translate(23.2683 105.989) rotate(66.4274) scale(41.844 71.9637)">
<stop stop-color="#191327"/>
<stop offset="1" stop-color="#191327" stop-opacity="0"/>
</radialGradient>
<linearGradient id="paint6_linear_1_426" x1="240.371" y1="110.248" x2="60.6787" y2="111.143" gradientUnits="userSpaceOnUse">
<stop offset="0.104167" stop-color="#996DFF"/>
<stop offset="0.5" stop-color="#E2D45C"/>
<stop offset="1" stop-color="#35E8B3"/>
</linearGradient>
<radialGradient id="paint7_radial_1_426" cx="0" cy="0" r="1" gradientUnits="userSpaceOnUse" gradientTransform="translate(130.359 140.729) rotate(16.2268) scale(121.075 206.357)">
<stop stop-color="#171226"/>
<stop offset="1" stop-color="#171226" stop-opacity="0"/>
</radialGradient>
<radialGradient id="paint8_radial_1_426" cx="0" cy="0" r="1" gradientUnits="userSpaceOnUse" gradientTransform="translate(161.331 24.0625) rotate(-156.398) scale(27.3175 46.3303)">
<stop stop-color="#261945"/>
<stop offset="1" stop-color="#261945" stop-opacity="0"/>
</radialGradient>
<radialGradient id="paint9_radial_1_426" cx="0" cy="0" r="1" gradientUnits="userSpaceOnUse" gradientTransform="translate(254.248 103.25) rotate(77.1168) scale(31.715 51.2343)">
<stop stop-color="#191326"/>
<stop offset="1" stop-color="#191326" stop-opacity="0"/>
</radialGradient>
<clipPath id="clip0_1_426">
<rect width="285.034" height="160" fill="white"/>
</clipPath>
</defs>
</svg>
